HIERARCHY
ROOT Hips
{
	OFFSET 0.000000 0.000000 0.000000 
	CHANNELS 6 Xposition Yposition Zposition Zrotation Xrotation Yrotation
	JOINT Spine
	{
		OFFSET -0.000000 8.280624 0.000000 
		CHANNELS 3 Zrotation Xrotation Yrotation
		JOINT Spine1
		{
			OFFSET -0.000000 24.860672 0.000000 
			CHANNELS 3 Zrotation Xrotation Yrotation
			JOINT Neck
			{
				OFFSET -0.000000 24.758574 2.250779 
				CHANNELS 3 Zrotation Xrotation Yrotation
				JOINT Head
				{
					OFFSET -0.000000 14.137651 -2.019665 
					CHANNELS 3 Zrotation Xrotation Yrotation
					End Site
					{
						OFFSET -0.000000 25.245806 0.000000 
					}
				}
			}
			JOINT LeftShoulder
			{
				OFFSET 4.021533 22.370487 -0.301823 
				CHANNELS 3 Zrotation Xrotation Yrotation
				JOINT LeftArm
				{
					OFFSET 12.928750 0.000000 0.000000 
					CHANNELS 3 Zrotation Xrotation Yrotation
					JOINT LeftForeArm
					{
						OFFSET 29.110218 0.000000 0.000000 
						CHANNELS 3 Zrotation Xrotation Yrotation
						JOINT LeftHand
						{
							OFFSET 26.112843 0.000000 0.000000 
							CHANNELS 3 Zrotation Xrotation Yrotation
							End Site
							{
								OFFSET 15.147485 0.000000 0.000000 
							}
						}
					}
				}
			}
			JOINT RightShoulder
			{
				OFFSET -4.040554 22.370487 -0.301823 
				CHANNELS 3 Zrotation Xrotation Yrotation
				JOINT RightArm
				{
					OFFSET -12.928750 0.000000 0.000000 
					CHANNELS 3 Zrotation Xrotation Yrotation
					JOINT RightForeArm
					{
						OFFSET -29.110218 0.000000 0.000000 
						CHANNELS 3 Zrotation Xrotation Yrotation
						JOINT RightHand
						{
							OFFSET -26.112843 0.000000 0.000000 
							CHANNELS 3 Zrotation Xrotation Yrotation
							End Site
							{
								OFFSET -15.147485 0.000000 0.000000 
							}
						}
					}
				}
			}
		}
	}
	JOINT LeftUpLeg
	{
		OFFSET 10.098323 0.000000 0.000000 
		CHANNELS 3 Zrotation Xrotation Yrotation
		JOINT LeftLeg
		{
			OFFSET -0.000000 -44.180832 0.000000 
			CHANNELS 3 Zrotation Xrotation Yrotation
			JOINT LeftFoot
			{
				OFFSET -0.000000 -40.401024 0.000000 
				CHANNELS 3 Zrotation Xrotation Yrotation
				JOINT LeftToeBase
				{
					OFFSET -0.000000 -6.563910 15.147485 
					CHANNELS 3 Zrotation Xrotation Yrotation
					End Site
					{
						OFFSET -0.000000 0.000000 4.039329 
					}
				}
			}
		}
	}
	JOINT RightUpLeg
	{
		OFFSET -10.098323 0.000000 0.000000 
		CHANNELS 3 Zrotation Xrotation Yrotation
		JOINT RightLeg
		{
			OFFSET -0.000000 -44.180832 0.000000 
			CHANNELS 3 Zrotation Xrotation Yrotation
			JOINT RightFoot
			{
				OFFSET -0.000000 -40.401024 0.000000 
				CHANNELS 3 Zrotation Xrotation Yrotation
				JOINT RightToeBase
				{
					OFFSET -0.000000 -6.563910 15.147485 
					CHANNELS 3 Zrotation Xrotation Yrotation
					End Site
					{
						OFFSET -0.000000 0.000000 4.039329 
					}
				}
			}
		}
	}
}
MOTION
Frames: 9
Frame Time: 0.008333
-41.797581 98.519447 -24.568274 -8.726271 34.107918 154.483948 0.206136 14.061793 4.967289 18.194628 -7.537694 6.201532 -11.256928 7.567777 -4.750085 -9.158194 23.342098 -3.432486 0.157908 0.965357 -24.707327 -44.879398 28.750811 -57.203461 -18.428789 -38.927166 -27.072729 0.014424 -42.322372 27.691120 0.890035 -2.488605 28.980785 50.537560 12.172558 41.225838 -5.072973 -40.086514 0.457341 11.237653 -41.664845 -21.177549 -25.063143 16.330046 -4.382858 -3.982110 7.651942 -5.416639 -4.503680 27.629623 4.705404 0.000000 0.000000 0.000000 -39.803009 38.877438 5.134563 -4.033898 28.910866 7.908318 12.663539 22.842426 -33.737701 0.000000 0.000000 0.000000 
-41.593048 98.527023 -24.653637 -9.084381 34.411827 156.481064 0.270067 14.410070 5.831566 18.050585 -7.815956 7.109191 -10.292953 8.160180 -5.701231 -8.667875 21.878036 -4.707794 -0.320130 0.728729 -23.658815 -45.377060 29.068113 -55.342186 -19.432110 -37.173729 -29.937460 -0.287317 -41.292763 27.397055 1.402243 -2.754363 27.995253 50.636333 13.025491 42.093624 -4.595291 -40.101341 1.037694 10.470375 -41.511082 -20.556259 -24.835005 17.102142 -4.812741 -4.002787 7.817061 -6.085297 -4.248135 27.559481 4.289921 0.000000 0.000000 0.000000 -38.737663 40.500198 5.017454 -3.867577 28.724493 7.771799 12.837385 23.305990 -34.524235 0.000000 0.000000 0.000000 
-41.423172 98.546860 -24.740715 -9.481617 34.616451 158.573456 0.434136 14.698350 6.583942 17.888176 -8.179399 7.929516 -10.025702 8.819348 -6.823667 -7.558376 20.668209 -6.099222 -0.819065 0.679340 -22.762621 -45.625782 29.157667 -53.435360 -20.611954 -35.327484 -33.170673 -0.135035 -40.259792 27.243454 1.776588 -2.924922 27.140411 50.847897 13.505518 43.032402 -4.030822 -39.876057 1.577592 9.671803 -41.131763 -19.970039 -24.560539 17.805332 -5.415403 -4.022768 7.987582 -6.756668 -4.010275 27.456593 3.978556 0.000000 0.000000 0.000000 -37.508327 42.008614 4.572177 -3.829851 28.565283 7.709491 13.154135 23.902407 -35.119308 0.000000 0.000000 0.000000 
-41.313225 98.561462 -24.823805 -9.938643 34.713158 160.620117 0.565995 14.905087 7.286764 17.801661 -8.635435 8.715838 -10.006798 9.722639 -7.916574 -6.345390 19.541431 -7.436085 -1.239084 0.974480 -22.163631 -45.525597 29.070522 -51.760841 -21.892220 -33.918545 -36.738251 0.900785 -39.640839 27.432213 1.865317 -3.068366 26.432379 51.206764 13.845148 43.906704 -3.609487 -39.604145 2.102961 8.861837 -40.721184 -19.524742 -24.326345 18.380526 -6.187556 -4.044291 8.125477 -7.202591 -3.713257 27.327862 3.653022 0.000000 0.000000 0.000000 -36.373966 43.315899 4.228329 -3.600976 28.411345 7.484872 13.340357 24.568541 -35.504230 0.000000 0.000000 0.000000 
-41.243187 98.573265 -24.909294 -10.454901 34.693542 162.652283 0.717988 14.968523 7.929275 17.751276 -9.062531 9.441817 -10.088376 10.457150 -9.020777 -5.415720 18.969570 -8.704585 -1.606003 1.400402 -21.783691 -45.414616 28.797644 -49.939198 -23.117821 -32.586094 -40.509521 1.673028 -39.265312 27.440607 1.667007 -3.326811 26.019453 51.735058 14.143236 44.632580 -3.298859 -39.315727 2.653544 8.018672 -40.307007 -19.314430 -24.133251 18.850752 -7.077090 -4.029723 8.223868 -7.662332 -3.493020 27.160027 3.499181 0.000000 0.000000 0.000000 -35.253975 44.491211 3.970217 -3.263638 28.198975 6.987491 13.280054 25.314930 -35.504276 0.000000 0.000000 0.000000 
-41.183006 98.590218 -25.010448 -11.046961 34.555882 164.752518 0.993493 15.021487 8.454579 17.478760 -9.629086 10.069326 -10.327770 11.144968 -9.970072 -4.422126 18.684141 -9.781665 -1.782754 2.113703 -21.487116 -45.307098 28.188818 -47.980099 -24.271416 -31.111513 -44.421013 2.217689 -38.925236 27.024862 1.424194 -3.476511 25.754045 52.184307 14.586550 45.531544 -3.062534 -39.042320 3.310082 6.874922 -39.883320 -19.417158 -23.938303 19.283056 -8.222335 -4.011785 8.198513 -8.155015 -3.417292 27.003195 3.572022 0.000000 0.000000 0.000000 -34.113426 45.606491 3.527755 -2.920053 27.899595 6.568867 13.163317 26.097878 -35.283257 0.000000 0.000000 0.000000 
-41.149975 98.613594 -25.117233 -11.689650 34.289734 166.729889 1.338881 14.956070 8.889215 16.991356 -10.094739 10.576767 -10.724470 11.549911 -10.782164 -3.308445 18.905340 -10.667435 -1.791601 2.951181 -21.207901 -45.307919 27.193129 -46.053947 -25.418480 -29.496725 -48.144966 2.704951 -38.555740 26.385794 1.113426 -3.800508 25.609671 52.657879 15.283326 46.378269 -2.826221 -38.806904 4.147588 5.492267 -39.468506 -19.714891 -23.812254 19.622391 -9.547364 -3.953703 8.013965 -8.407305 -3.342062 26.918226 3.605367 0.000000 0.000000 0.000000 -33.038696 46.434429 2.307484 -3.001494 27.647657 6.877361 13.259111 26.927954 -34.975906 0.000000 0.000000 0.000000 
-41.119385 98.657875 -25.227356 -12.305875 33.935673 168.612411 1.821122 14.774458 9.191134 16.321621 -10.365756 10.917787 -10.957541 11.933156 -11.378571 -2.577214 18.938379 -11.334942 -1.801579 3.721280 -20.900637 -45.479527 25.911810 -43.913326 -26.694519 -27.776012 -51.827896 3.197210 -38.263397 25.748587 0.867608 -4.153283 25.558134 52.883007 16.196728 47.400261 -2.559915 -38.543602 5.073866 4.049723 -39.015549 -20.115767 -23.716536 19.924530 -11.014918 -3.792647 7.746910 -8.626069 -3.334452 26.849827 3.746056 0.000000 0.000000 0.000000 -31.941824 47.143703 0.870048 -3.226987 27.329180 7.353454 13.515738 27.728701 -34.617443 0.000000 0.000000 0.000000 
-41.094887 98.728714 -25.351501 -12.865437 33.582676 170.353226 2.184188 14.516462 9.555673 15.778469 -10.464666 11.287963 -10.882534 12.255672 -11.961904 -2.327366 18.786455 -11.987128 -1.826239 4.322666 -20.797312 -45.856419 24.552896 -41.821186 -27.717382 -26.017069 -55.108463 4.013662 -37.810852 25.201134 0.553398 -4.520404 25.446747 52.720852 17.274485 48.486401 -2.194388 -38.376251 6.107876 3.013324 -38.705513 -20.232452 -23.635025 20.282990 -12.478911 -3.581987 7.366133 -8.796187 -3.397046 26.845839 3.953463 0.000000 0.000000 0.000000 -31.010965 47.809002 -0.545313 -3.407951 26.975349 8.121385 13.720018 28.508408 -34.262039 0.000000 0.000000 0.000000 
